<svg width="160" height="153" viewBox="0 0 160 153" fill="none" xmlns="http://www.w3.org/2000/svg">
<path d="M20 133.571V106.539L108 22.7389C109.333 21.5728 110.807 20.6717 112.42 20.0356C114.033 19.3996 115.727 19.0815 117.5 19.0815C119.273 19.0815 120.996 19.3996 122.667 20.0356C124.338 20.6717 125.782 21.6258 127 22.8979L136.167 31.8026C137.5 32.9687 138.473 34.3468 139.087 35.937C139.7 37.5271 140.004 39.1172 140 40.7074C140 42.4035 139.696 44.0212 139.087 45.5605C138.478 47.0997 137.504 48.5033 136.167 49.7711L48.3333 133.571H20ZM117.333 49.6121L126.667 40.7074L117.333 31.8026L108 40.7074L117.333 49.6121Z" fill="#2F0E07"/>
</svg>
